ffmpeg version 1.6-1-g10a901c2-sophon-1.7.0 Copyright (c) 2000-2023 the FFmpeg developers
  built with gcc 6.3.1 (Linaro GCC 6.3-2017.05) 20170404
  configuration: --enable-cross-compile --cross-prefix=aarch64-linux-gnu- --target-os=linux --arch=aarch64 --cpu=cortex-a53 --pkg-config=pkg-config --optflags= --enable-static --enable-shared --enable-pic --enable-swscale --enable-libfreetype --enable-libmp3lame --disable-decoder=h264_v4l2m2m --disable-vaapi --disable-hwaccel=h263_vaapi --disable-hwaccel=h264_vaapi --disable-hwaccel=hevc_vaapi --disable-hwaccel=mjpeg_vaapi --disable-hwaccel=mpeg2_vaapi --disable-hwaccel=mpeg4_vaapi --disable-hwaccel=vc1_vaapi --disable-hwaccel=vp8_vaapi --disable-hwaccel=wmv3_vaapi --enable-encoder=h264_bm --enable-encoder=h265_bm --enable-bmcodec --enable-encoder=jpeg_bm --enable-decoder=jpeg_bm --enable-decoder=h264_bm --enable-decoder=hevc_bm --disable-decoder=h263_bm --disable-decoder=vc1_bm --disable-decoder=wmv1_bm --disable-decoder=wmv2_bm --disable-decoder=wmv3_bm --disable-decoder=mpeg1_bm --disable-decoder=mpeg2_bm --disable-decoder=mpeg4_bm --disable-decoder=mpeg4v3_bm --disable-decoder=flv1_bm --disable-decoder=cavs_bm --disable-decoder=avs_bm --disable-decoder=vp3_bm --disable-decoder=vp8_bm --enable-zlib --enable-openssl --disable-encoder=bmx264 --disable-sdl2 --disable-ffplay --extra_cflags='-I/home/my/bm1688_source_V1.7/sophon_media/libsophav/jpeg/inc -I/home/my/bm1688_source_V1.7/sophon_media/libsophav/video/dec/inc -I/home/my/bm1688_source_V1.7/sophon_media/libsophav/video/enc/inc -I/home/my/bm1688_source_V1.7/sophon_media/libsophav/bmcv/include -I/home/my/bm1688_source_V1.7/sophon_media/libsophav/3rdparty/osdrv -I/home/my/bm1688_source_V1.7/sophon_media/libsophav/3rdparty/libisp/include -I/home/my/bm1688_source_V1.7/sophon_media/prebuilt/include -I/home/my/bm1688_source_V1.7/sophon_media/prebuilt/include/gbclient -I/home/my/bm1688_source_V1.7/sophon_media/libsophav/3rdparty/libbmcv/include -DBM1684 -DBM1686 -DBM1688' --extra-ldflags='-L/home/my/bm1688_source_V1.7/sophon_media/prebuilt/lib -Wl,-rpath=/home/my/bm1688_source_V1.7/sophon_media/prebuilt/lib -L/home/my/bm1688_source_V1.7/sophon_media/bmcv -L/home/my/bm1688_source_V1.7/sophon_media/libsophav/3rdparty/libbmcv/lib/soc -L/home/my/bm1688_source_V1.7/sophon_media/buildit/libsophav/video/dec -L/home/my/bm1688_source_V1.7/sophon_media/buildit/libsophav/video/enc -L/home/my/bm1688_source_V1.7/sophon_media/buildit/libsophav/jpeg -L/home/my/bm1688_source_V1.7/sophon_media/buildit/libsophav/bmcv -L/home/my/bm1688_source_V1.7/sophon_media/libsophav/3rdparty/libisp/lib/soc' --extra-libs='-Wl,--start-group -lpthread -lrt -lssl -lcrypto -ldl -lresolv -lstdc++ -lgb28181_sip -lm -lispv4l2_helper -lae -laf -lawb -lcvi_bin -lcvi_bin_isp -lcvi_ispd2 -lisp -lisp_algo -lispv4l2_adapter -ljson-c -lsns_full -lbmlib -lbmjpeg -lbmvd -lbmvenc -lbmcv -Wl,--end-group' --extra-version=sophon-1.7.0
  libavutil      58.  2.100 / 58.  2.100
  libavcodec     60.  3.100 / 60.  3.100
  libavformat    60.  3.100 / 60.  3.100
  libavdevice    60.  1.100 / 60.  1.100
  libavfilter     9.  3.100 /  9.  3.100
  libswscale      7.  1.100 /  7.  1.100
  libswresample   4. 10.100 /  4. 10.100
[rtsp @ 0x482a60] getaddrinfo(): Name or service not known
[rtsp @ 0x482a60] KEEP_RTSP_TIMESTAMP=0 applied
    Last message repeated 2 times
Guessed Channel Layout for Input Stream #0.1 : mono
Input #0, rtsp, from 'rtsp://192.168.1.225:554/media/video1':
  Metadata:
    title           : VCP IPC Realtime stream
  Duration: N/A, start: 0.000000, bitrate: N/A
  Stream #0:0: Video: h264 (High), yuvj420p(pc, bt709, progressive), 2304x1296, 25 fps, 25 tbr, 90k tbn
  Stream #0:1: Audio: pcm_mulaw, 8000 Hz, 1 channels, s16, 64 kb/s
  Stream #0:2: Data: none
Stream mapping:
  Stream #0:0 -> #0:0 (copy)
  Stream #0:1 -> #0:1 (pcm_mulaw (native) -> aac (native))
Press [q] to stop, [?] for help
[aac @ 0x502560] Too many bits 8832.000000 > 6144 per frame requested, clamping to max
Output #0, avi, to '/mnt/tfcard/videos/20241129104928.avi':
  Metadata:
    INAM            : VCP IPC Realtime stream
    ISFT            : Lavf60.3.100
  Stream #0:0: Video: h264 (High) (H264 / 0x34363248), yuvj420p(pc, bt709, progressive), 2304x1296, q=2-31, 25 fps, 25 tbr, 50 tbn
  Stream #0:1: Audio: aac (LC) ([255][0][0][0] / 0x00FF), 8000 Hz, mono, fltp, 48 kb/s
    Metadata:
      encoder         : Lavc60.3.100 aac
frame=    0 fps=0.0 q=-1.0 size=       0kB time=-577014:32:22.77 bitrate=  -0.0kbits/s speed=N/A    frame=   41 fps=0.0 q=-1.0 size=     768kB time=00:00:01.64 bitrate=3836.3kbits/s speed=3.23x    frame=   50 fps= 50 q=-1.0 size=     768kB time=00:00:02.04 bitrate=3084.0kbits/s speed=2.02x    frame=   67 fps= 44 q=-1.0 size=    1280kB time=00:00:02.68 bitrate=3912.6kbits/s speed=1.78x    frame=   79 fps= 39 q=-1.0 size=    1536kB time=00:00:03.16 bitrate=3981.9kbits/s speed=1.56x    frame=   91 fps= 36 q=-1.0 size=    1792kB time=00:00:03.68 bitrate=3989.1kbits/s speed=1.45x    frame=  102 fps= 33 q=-1.0 size=    2048kB time=00:00:04.12 bitrate=4072.1kbits/s speed=1.35x    frame=  117 fps= 33 q=-1.0 size=    2560kB time=00:00:04.68 bitrate=4481.1kbits/s speed=1.32x    frame=  130 fps= 32 q=-1.0 size=    2816kB time=00:00:05.20 bitrate=4436.3kbits/s speed=1.28x    frame=  143 fps= 31 q=-1.0 size=    3072kB time=00:00:05.72 bitrate=4399.6kbits/s speed=1.25x    frame=  156 fps= 31 q=-1.0 size=    3328kB time=00:00:06.24 bitrate=4369.1kbits/s speed=1.22x    frame=  169 fps= 30 q=-1.0 size=    3840kB time=00:00:06.76 bitrate=4653.4kbits/s speed= 1.2x    frame=  181 fps= 29 q=-1.0 size=    3840kB time=00:00:07.28 bitrate=4321.1kbits/s speed=1.18x    frame=  195 fps= 29 q=-1.0 size=    4352kB time=00:00:07.80 bitrate=4570.7kbits/s speed=1.17x    frame=  208 fps= 29 q=-1.0 size=    4608kB time=00:00:08.32 bitrate=4537.1kbits/s speed=1.16x    frame=  221 fps= 29 q=-1.0 size=    5120kB time=00:00:08.84 bitrate=4744.7kbits/s speed=1.15x    frame=  233 fps= 28 q=-1.0 size=    5120kB time=00:00:09.36 bitrate=4481.1kbits/s speed=1.14x    frame=  247 fps= 28 q=-1.0 size=    5376kB time=00:00:09.88 bitrate=4457.5kbits/s speed=1.13x    frame=  260 fps= 28 q=-1.0 size=    5632kB time=00:00:10.40 bitrate=4436.3kbits/s speed=1.12x    frame=  273 fps= 28 q=-1.0 size=    6144kB time=00:00:10.92 bitrate=4609.1kbits/s speed=1.12x    frame=  285 fps= 28 q=-1.0 size=    6400kB time=00:00:11.44 bitrate=4582.9kbits/s speed=1.11x    frame=  299 fps= 28 q=-1.0 size=    6656kB time=00:00:11.96 bitrate=4559.0kbits/s speed= 1.1x    frame=  311 fps= 27 q=-1.0 size=    6912kB time=00:00:12.48 bitrate=4537.1kbits/s speed= 1.1x    frame=  325 fps= 27 q=-1.0 size=    7424kB time=00:00:13.00 bitrate=4678.3kbits/s speed= 1.1x    frame=  337 fps= 27 q=-1.0 size=    7680kB time=00:00:13.52 bitrate=4653.4kbits/s speed=1.09x    frame=  350 fps= 27 q=-1.0 size=    7936kB time=00:00:14.00 bitrate=4643.7kbits/s speed=1.08x    frame=  363 fps= 27 q=-1.0 size=    8448kB time=00:00:14.56 bitrate=4753.2kbits/s speed=1.08x    frame=  377 fps= 27 q=-1.0 size=    8704kB time=00:00:15.08 bitrate=4728.3kbits/s speed=1.08x    frame=  389 fps= 27 q=-1.0 size=    8704kB time=00:00:15.60 bitrate=4570.7kbits/s speed=1.08x    frame=  401 fps= 27 q=-1.0 size=    8960kB time=00:00:16.04 bitrate=4576.1kbits/s speed=1.07x    frame=  417 fps= 27 q=-1.0 size=    9728kB time=00:00:16.68 bitrate=4777.7kbits/s speed=1.07x    frame=  429 fps= 27 q=-1.0 size=    9984kB time=00:00:17.20 bitrate=4755.2kbits/s speed=1.07x    frame=  443 fps= 27 q=-1.0 size=    9984kB time=00:00:17.72 bitrate=4615.6kbits/s speed=1.07x    frame=  455 fps= 27 q=-1.0 size=   10240kB time=00:00:18.24 bitrate=4599.0kbits/s speed=1.07x    frame=  469 fps= 27 q=-1.0 size=   10752kB time=00:00:18.76 bitrate=4695.1kbits/s speed=1.06x    frame=  481 fps= 27 q=-1.0 size=   11008kB time=00:00:19.28 bitrate=4677.3kbits/s speed=1.06x    frame=  495 fps= 27 q=-1.0 size=   11264kB time=00:00:19.80 bitrate=4660.3kbits/s speed=1.06x    frame=  507 fps= 26 q=-1.0 size=   11520kB time=00:00:20.32 bitrate=4644.3kbits/s speed=1.06x    frame=  521 fps= 26 q=-1.0 size=   12032kB time=00:00:20.84 bitrate=4729.7kbits/s speed=1.06x    frame=  533 fps= 26 q=-1.0 size=   12288kB time=00:00:21.36 bitrate=4712.7kbits/s speed=1.06x    frame=  547 fps= 26 q=-1.0 size=   12544kB time=00:00:21.88 bitrate=4696.5kbits/s speed=1.05x    frame=  559 fps= 26 q=-1.0 size=   12800kB time=00:00:22.40 bitrate=4681.1kbits/s speed=1.05x    frame=  573 fps= 26 q=-1.0 size=   13312kB time=00:00:22.92 bitrate=4757.9kbits/s speed=1.05x    frame=  586 fps= 26 q=-1.0 size=   13568kB time=00:00:23.44 bitrate=4741.9kbits/s speed=1.05x    frame=  599 fps= 26 q=-1.0 size=   13824kB time=00:00:23.96 bitrate=4726.5kbits/s speed=1.05x    frame=  611 fps= 26 q=-1.0 size=   14336kB time=00:00:24.48 bitrate=4797.4kbits/s speed=1.05x    frame=  625 fps= 26 q=-1.0 size=   14592kB time=00:00:25.00 bitrate=4781.5kbits/s speed=1.05x    frame=  637 fps= 26 q=-1.0 size=   14848kB time=00:00:25.52 bitrate=4766.3kbits/s speed=1.05x    frame=  650 fps= 26 q=-1.0 size=   15104kB time=00:00:26.04 bitrate=4751.6kbits/s speed=1.04x    frame=  665 fps= 26 q=-1.0 size=   15616kB time=00:00:26.60 bitrate=4809.3kbits/s speed=1.04x    frame=  677 fps= 26 q=-1.0 size=   15616kB time=00:00:27.12 bitrate=4717.0kbits/s speed=1.04x    frame=  691 fps= 26 q=-1.0 size=   16128kB time=00:00:27.64 bitrate=4780.0kbits/s speed=1.04x    frame=  703 fps= 26 q=-1.0 size=   16384kB time=00:00:28.16 bitrate=4766.3kbits/s speed=1.04x    frame=  717 fps= 26 q=-1.0 size=   16896kB time=00:00:28.68 bitrate=4826.1kbits/s speed=1.04x    frame=  729 fps= 26 q=-1.0 size=   17152kB time=00:00:29.20 bitrate=4812.0kbits/s speed=1.04x    frame=  743 fps= 26 q=-1.0 size=   17152kB time=00:00:29.72 bitrate=4727.8kbits/s speed=1.04x    frame=  755 fps= 26 q=-1.0 size=   17664kB time=00:00:30.24 bitrate=4785.2kbits/s speed=1.04x    frame=  769 fps= 26 q=-1.0 size=   17920kB time=00:00:30.76 bitrate=4772.5kbits/s speed=1.04x    frame=  782 fps= 26 q=-1.0 size=   18176kB time=00:00:31.28 bitrate=4760.2kbits/s speed=1.04x    frame=  795 fps= 26 q=-1.0 size=   18432kB time=00:00:31.84 bitrate=4742.3kbits/s speed=1.04x    frame=  807 fps= 26 q=-1.0 size=   18688kB time=00:00:32.32 bitrate=4736.8kbits/s speed=1.04x    frame=  821 fps= 26 q=-1.0 size=   19200kB time=00:00:32.84 bitrate=4789.5kbits/s speed=1.04x    frame=  833 fps= 26 q=-1.0 size=   19456kB time=00:00:33.36 bitrate=4777.7kbits/s speed=1.04x    frame=  847 fps= 26 q=-1.0 size=   19712kB time=00:00:33.88 bitrate=4766.3kbits/s speed=1.03x    frame=  859 fps= 26 q=-1.0 size=   19968kB time=00:00:34.40 bitrate=4755.2kbits/s speed=1.03x    frame=  873 fps= 26 q=-1.0 size=   20480kB time=00:00:34.92 bitrate=4804.5kbits/s speed=1.03x    frame=  886 fps= 26 q=-1.0 size=   20736kB time=00:00:35.44 bitrate=4793.2kbits/s speed=1.03x    frame=  899 fps= 26 q=-1.0 size=   20992kB time=00:00:35.96 bitrate=4782.2kbits/s speed=1.03x    frame=  911 fps= 26 q=-1.0 size=   21504kB time=00:00:36.48 bitrate=4829.0kbits/s speed=1.03x    frame=  925 fps= 26 q=-1.0 size=   21760kB time=00:00:37.00 bitrate=4817.8kbits/s speed=1.03x    frame=  937 fps= 26 q=-1.0 size=   22016kB time=00:00:37.52 bitrate=4806.9kbits/s speed=1.03x    frame=  950 fps= 26 q=-1.0 size=   22272kB time=00:00:38.00 bitrate=4801.4kbits/s speed=1.03x    frame=  965 fps= 26 q=-1.0 size=   22784kB time=00:00:38.60 bitrate=4835.4kbits/s speed=1.03x    frame=  977 fps= 26 q=-1.0 size=   23040kB time=00:00:39.08 bitrate=4829.7kbits/s speed=1.03x    frame=  989 fps= 26 q=-1.0 size=   23296kB time=00:00:39.60 bitrate=4819.2kbits/s speed=1.03x    frame= 1001 fps= 26 q=-1.0 size=   23552kB time=00:00:40.04 bitrate=4818.6kbits/s speed=1.03x    frame= 1017 fps= 26 q=-1.0 size=   24064kB time=00:00:40.68 bitrate=4845.9kbits/s speed=1.03x    frame= 1029 fps= 26 q=-1.0 size=   24320kB time=00:00:41.20 bitrate=4835.7kbits/s speed=1.03x    frame= 1043 fps= 26 q=-1.0 size=   24576kB time=00:00:41.72 bitrate=4825.7kbits/s speed=1.03x    frame= 1055 fps= 26 q=-1.0 size=   24832kB time=00:00:42.24 bitrate=4815.9kbits/s speed=1.03x    frame= 1069 fps= 26 q=-1.0 size=   25344kB time=00:00:42.76 bitrate=4855.4kbits/s speed=1.03x    frame= 1081 fps= 26 q=-1.0 size=   25600kB time=00:00:43.28 bitrate=4845.5kbits/s speed=1.03x    frame= 1095 fps= 26 q=-1.0 size=   25856kB time=00:00:43.80 bitrate=4835.9kbits/s speed=1.03x    frame= 1107 fps= 26 q=-1.0 size=   26112kB time=00:00:44.32 bitrate=4826.5kbits/s speed=1.03x    frame= 1121 fps= 26 q=-1.0 size=   26624kB time=00:00:44.84 bitrate=4864.0kbits/s speed=1.03x    frame= 1134 fps= 26 q=-1.0 size=   26880kB time=00:00:45.36 bitrate=4854.5kbits/s speed=1.03x    frame= 1147 fps= 26 q=-1.0 size=   27136kB time=00:00:45.88 bitrate=4845.2kbits/s speed=1.03x    frame= 1159 fps= 26 q=-1.0 size=   27392kB time=00:00:46.40 bitrate=4836.1kbits/s speed=1.03x    frame= 1173 fps= 26 q=-1.0 size=   27904kB time=00:00:46.92 bitrate=4871.9kbits/s speed=1.02x    frame= 1186 fps= 26 q=-1.0 size=   28160kB time=00:00:47.44 bitrate=4862.7kbits/s speed=1.02x    frame= 1199 fps= 26 q=-1.0 size=   28416kB time=00:00:47.96 bitrate=4853.7kbits/s speed=1.02x    frame= 1211 fps= 26 q=-1.0 size=   28672kB time=00:00:48.48 bitrate=4844.9kbits/s speed=1.02x    frame= 1225 fps= 26 q=-1.0 size=   29184kB time=00:00:49.00 bitrate=4879.1kbits/s speed=1.02x    frame= 1237 fps= 26 q=-1.0 size=   29184kB time=00:00:49.52 bitrate=4827.9kbits/s speed=1.02x    frame= 1251 fps= 26 q=-1.0 size=   29440kB time=00:00:50.04 bitrate=4819.6kbits/s speed=1.02x    frame= 1265 fps= 26 q=-1.0 size=   29952kB time=00:00:50.60 bitrate=4849.1kbits/s speed=1.02x    frame= 1277 fps= 26 q=-1.0 size=   30208kB time=00:00:51.08 bitrate=4844.6kbits/s speed=1.02x    frame= 1290 fps= 26 q=-1.0 size=   30464kB time=00:00:51.60 bitrate=4836.5kbits/s speed=1.02x    frame= 1301 fps= 26 q=-1.0 size=   30720kB time=00:00:52.04 bitrate=4835.9kbits/s speed=1.02x    frame= 1317 fps= 26 q=-1.0 size=   31232kB time=00:00:52.68 bitrate=4856.7kbits/s speed=1.02x    frame= 1329 fps= 26 q=-1.0 size=   31488kB time=00:00:53.20 bitrate=4848.7kbits/s speed=1.02x    frame= 1343 fps= 26 q=-1.0 size=   31744kB time=00:00:53.72 bitrate=4840.8kbits/s speed=1.02x    frame= 1355 fps= 26 q=-1.0 size=   32000kB time=00:00:54.24 bitrate=4833.0kbits/s speed=1.02x    frame= 1369 fps= 26 q=-1.0 size=   32512kB time=00:00:54.76 bitrate=4863.7kbits/s speed=1.02x    frame= 1381 fps= 26 q=-1.0 size=   32768kB time=00:00:55.28 bitrate=4855.9kbits/s speed=1.02x    frame= 1395 fps= 26 q=-1.0 size=   33024kB time=00:00:55.80 bitrate=4848.3kbits/s speed=1.02x    frame= 1407 fps= 26 q=-1.0 size=   33280kB time=00:00:56.32 bitrate=4840.7kbits/s speed=1.02x    frame= 1421 fps= 26 q=-1.0 size=   33792kB time=00:00:56.84 bitrate=4870.2kbits/s speed=1.02x    frame= 1433 fps= 25 q=-1.0 size=   34048kB time=00:00:57.36 bitrate=4862.6kbits/s speed=1.02x    frame= 1447 fps= 25 q=-1.0 size=   34304kB time=00:00:57.88 bitrate=4855.2kbits/s speed=1.02x    frame= 1459 fps= 25 q=-1.0 size=   34560kB time=00:00:58.40 bitrate=4847.9kbits/s speed=1.02x    frame= 1473 fps= 25 q=-1.0 size=   35072kB time=00:00:58.92 bitrate=4876.3kbits/s speed=1.02x    frame= 1486 fps= 25 q=-1.0 size=   35328kB time=00:00:59.44 bitrate=4868.9kbits/s speed=1.02x    frame= 1499 fps= 25 q=-1.0 size=   35584kB time=00:00:59.96 bitrate=4861.6kbits/s speed=1.02x    frame= 1511 fps= 25 q=-1.0 size=   35840kB time=00:01:00.48 bitrate=4854.5kbits/s speed=1.02x    frame= 1525 fps= 25 q=-1.0 size=   36352kB time=00:01:01.00 bitrate=4881.9kbits/s speed=1.02x    frame= 1538 fps= 25 q=-1.0 size=   36608kB time=00:01:01.52 bitrate=4874.7kbits/s speed=1.02x    frame= 1550 fps= 25 q=-1.0 size=   36864kB time=00:01:02.00 bitrate=4870.8kbits/s speed=1.02x    frame= 1565 fps= 25 q=-1.0 size=   37376kB time=00:01:02.60 bitrate=4891.1kbits/s speed=1.02x    frame= 1577 fps= 25 q=-1.0 size=   37632kB time=00:01:03.08 bitrate=4887.1kbits/s speed=1.02x    frame= 1589 fps= 25 q=-1.0 size=   37888kB time=00:01:03.60 bitrate=4880.2kbits/s speed=1.02x    frame= 1600 fps= 25 q=-1.0 size=   38144kB time=00:01:04.04 bitrate=4879.4kbits/s speed=1.02x    frame= 1617 fps= 25 q=-1.0 size=   38656kB time=00:01:04.72 bitrate=4892.9kbits/s speed=1.02x    frame= 1631 fps= 25 q=-1.0 size=   38912kB time=00:01:05.24 bitrate=4886.1kbits/s speed=1.02x    frame= 1643 fps= 25 q=-1.0 size=   39168kB time=00:01:05.76 bitrate=4879.3kbits/s speed=1.02x    frame= 1657 fps= 25 q=-1.0 size=   39424kB time=00:01:06.28 bitrate=4872.7kbits/s speed=1.02x    frame= 1670 fps= 25 q=-1.0 size=   39936kB time=00:01:06.80 bitrate=4897.5kbits/s speed=1.02x    frame= 1683 fps= 25 q=-1.0 size=   40192kB time=00:01:07.32 bitrate=4890.9kbits/s speed=1.02x    frame= 1693 fps= 25 q=-1.0 size=   40192kB time=00:01:07.84 bitrate=4853.4kbits/s speed=1.02x    frame= 1709 fps= 25 q=-1.0 size=   40704kB time=00:01:08.36 bitrate=4877.8kbits/s speed=1.02x    frame= 1721 fps= 25 q=-1.0 size=   41216kB time=00:01:08.88 bitrate=4901.9kbits/s speed=1.02x    frame= 1735 fps= 25 q=-1.0 size=   41472kB time=00:01:09.40 bitrate=4895.4kbits/s speed=1.02x    frame= 1747 fps= 25 q=-1.0 size=   41728kB time=00:01:09.92 bitrate=4889.0kbits/s speed=1.02x    frame= 1761 fps= 25 q=-1.0 size=   41984kB time=00:01:10.44 bitrate=4882.6kbits/s speed=1.02x    frame= 1774 fps= 25 q=-1.0 size=   42496kB time=00:01:10.96 bitrate=4906.0kbits/s speed=1.02x    frame= 1787 fps= 25 q=-1.0 size=   42496kB time=00:01:11.48 bitrate=4870.3kbits/s speed=1.02x    frame= 1799 fps= 25 q=-1.0 size=   42752kB time=00:01:12.00 bitrate=4864.2kbits/s speed=1.02x    frame= 1813 fps= 25 q=-1.0 size=   43264kB time=00:01:12.52 bitrate=4887.2kbits/s speed=1.02x    frame= 1825 fps= 25 q=-1.0 size=   43520kB time=00:01:13.04 bitrate=4881.1kbits/s speed=1.02x    frame= 1839 fps= 25 q=-1.0 size=   43776kB time=00:01:13.56 bitrate=4875.1kbits/s speed=1.02x    frame= 1850 fps= 25 q=-1.0 size=   44032kB time=00:01:14.00 bitrate=4874.5kbits/s speed=1.01x    frame= 1865 fps= 25 q=-1.0 size=   44800kB time=00:01:14.60 bitrate=4919.6kbits/s speed=1.02x    frame= 1877 fps= 25 q=-1.0 size=   44800kB time=00:01:15.12 bitrate=4885.5kbits/s speed=1.02x      frame= 1822 fps= 25 q=-1.0 size=   43520kB time=00:01:12.84 bitrate=4894.5kbits/s speed=1.01x    frame= 1836 fps= 25 q=-1.0 size=   43776kB time=00:01:13.36 bitrate=4888.4kbits/s speed=1.01x    frame= 1846 fps= 25 q=-1.0 size=   44032kB time=00:01:13.76 bitrate=4890.3kbits/s speed=1.01x    frame= 1862 fps= 25 q=-1.0 size=   44544kB time=00:01:14.40 bitrate=4904.6kbits/s speed=1.01x    frame= 1875 fps= 25 q=-1.0 size=   44800kB time=00:01:14.90 bitrate=4899.9kbits/s speed=1.01x    frame= 1888 fps= 25 q=-1.0 size=   45056kB time=00:01:15.42 bitrate=4893.9kbits/s speed=1.01x    frame= 1900 fps= 25 q=-1.0 size=   45312kB time=00:01:15.94 bitrate=4888.0kbits/s speed=1.01x    frame= 1914 fps= 25 q=-1.0 size=   45824kB time=00:01:16.46 bitrate=4909.6kbits/s speed=1.01x    e=4896.6kbits/s speed=1.01x    frame= 1950 fps= 25 q=-1.0 size=   46592kB time=00:01:17.92 bitrate=4898.4kbits/s speed=1.01x    frame= 1964 fps= 25 q=-1.0 size=   47104kB time=00:01:18.52 bitrate=4914.4kbits/s speed=1.01x    size=   46592kB time=00:01:17.96 bitrate=4895.9kbits/s speed=1.01x    frame= 1962 fps= 25 q=-1.0 size=   47104kB time=00:01:18.48 bitrate=4916.9kbits/s speed=1.01x    frame= 1974 fps= 25 q=-1.0 size=   47360kB time=00:01:19.00 bitrate=4911.1kbits/s speed=1.01x    frame= 1988 fps= 25 q=-1.0 size=   47872kB time=00:01:19.52 bitrate=4931.7kbits/s speed=1.01x    frame= 2000 fps= 25 q=-1.0 size=   47872kB time=00:01:20.04 bitrate=4899.6kbits/s speed=1.01x    frame= 2013 fps= 25 q=-1.0 size=   48384kB time=00:01:20.52 bitrate=4922.5kbits/s speed=1.01x    frame= 2026 fps= 25 q=-1.0 size=   48896kB time=00:01:21.08 bitrate=4940.3kbits/s speed=1.01x    frame= 2040 fps= 25 q=-1.0 size=   48896kB time=00:01:21.60 bitrate=4908.8kbits/s speed=1.01x       47872kB time=00:01:19.80 bitrate=4914.4kbits/s speed=1.01x    frame= 2010 fps= 25 q=-1.0 size=   48128kB time=00:01:20.32 bitrate=4908.7kbits/s speed=1.01x    frame= 2022 fps= 25 q=-1.0 size=   48384kB time=00:01:20.84 bitrate=4903.0kbits/s speed=1.01x    frame= 2036 fps= 25 q=-1.0 size=   48896kB time=00:01:21.36 bitrate=4923.3kbits/s speed=1.01x                                                                                                                                                                                                                                                                                                                                                                                                                                                                                                                                                                                                                